<?xml version="1.0" encoding="utf-8"?>
<!-- Generator: Adobe Illustrator 16.0.0, SVG Export Plug-In . SVG Version: 6.00 Build 0)  -->
<!DOCTYPE svg PUBLIC "-//W3C//DTD SVG 1.1//EN" "http://www.w3.org/Graphics/SVG/1.1/DTD/svg11.dtd">
<svg version="1.1" id="Layer_1" xmlns="http://www.w3.org/2000/svg" xmlns:xlink="http://www.w3.org/1999/xlink" x="0px" y="0px"
	 width="96px" height="96px" viewBox="0 0 96 96" enable-background="new 0 0 96 96" xml:space="preserve">
<g>
	<path d="M54.911,66.165c0,0.788-0.283,1.467-0.848,2.037c-0.565,0.571-1.258,0.856-2.076,0.856c-0.78,0-1.453-0.285-2.018-0.856
		s-0.848-1.251-0.848-2.039V31.351c0-0.197-0.123-0.236-0.367-0.118l-3.299,1.905c-0.433,0.28-0.905,0.419-1.416,0.419
		c-0.827,0-1.525-0.285-2.096-0.856c-0.57-0.57-0.855-1.249-0.855-2.037c0-1.143,0.492-1.989,1.477-2.541l7.974-4.608
		c0.945-0.55,1.909-0.55,2.896,0.001c0.983,0.553,1.477,1.398,1.477,2.54V66.165z"/>
</g>
</svg>
