<?xml version="1.0" encoding="utf-8"?>
<!-- Generator: Adobe Illustrator 16.0.0, SVG Export Plug-In . SVG Version: 6.00 Build 0)  -->
<!DOCTYPE svg PUBLIC "-//W3C//DTD SVG 1.1//EN" "http://www.w3.org/Graphics/SVG/1.1/DTD/svg11.dtd">
<svg version="1.1" id="Layer_1" xmlns="http://www.w3.org/2000/svg" xmlns:xlink="http://www.w3.org/1999/xlink" x="0px" y="0px"
	 width="96px" height="96px" viewBox="0 0 96 96" enable-background="new 0 0 96 96" xml:space="preserve">
<g>
	<path d="M60.582,66.165c0,0.788-0.286,1.467-0.856,2.037c-0.571,0.571-1.251,0.856-2.038,0.856h-19.67
		c-1.182,0-2.049-0.512-2.6-1.537c-0.552-1.024-0.495-2.03,0.17-3.017l17.988-26.442c0.811-1.176,1.217-2.47,1.217-3.881
		c0-1.489-0.524-2.753-1.571-3.792c-1.046-1.039-2.301-1.559-3.762-1.559h-3.199c-2.213,0-3.812,0.973-4.8,2.915
		c-0.515,1.051-1.384,1.575-2.607,1.575c-0.79,0-1.473-0.274-2.045-0.823c-0.573-0.548-0.859-1.232-0.859-2.055
		c0-0.431,0.099-0.861,0.296-1.293c0.983-1.879,2.362-3.366,4.135-4.463s3.722-1.646,5.848-1.646h3.189
		c3.072,0,5.701,1.093,7.887,3.274c2.186,2.183,3.278,4.808,3.278,7.874c0,2.596-0.748,4.994-2.245,7.196L43.688,62.975
		c-0.118,0.197-0.079,0.296,0.118,0.296h13.882c0.787,0,1.467,0.275,2.038,0.826C60.296,64.649,60.582,65.338,60.582,66.165z"/>
</g>
</svg>
