<?xml version="1.0" encoding="utf-8"?>
<!-- Generator: Adobe Illustrator 16.0.0, SVG Export Plug-In . SVG Version: 6.00 Build 0)  -->
<!DOCTYPE svg PUBLIC "-//W3C//DTD SVG 1.1//EN" "http://www.w3.org/Graphics/SVG/1.1/DTD/svg11.dtd">
<svg version="1.1" id="Layer_1" xmlns="http://www.w3.org/2000/svg" xmlns:xlink="http://www.w3.org/1999/xlink" x="0px" y="0px"
	 width="96px" height="96px" viewBox="0 0 96 96" enable-background="new 0 0 96 96" xml:space="preserve">
<g>
	<path d="M60.759,58.086c0,3.067-1.083,5.684-3.248,7.847c-2.167,2.164-4.785,3.244-7.857,3.244h-4.075
		c-2.126,0-4.086-0.551-5.878-1.653s-3.16-2.6-4.104-4.489c-0.198-0.434-0.296-0.866-0.296-1.3c0-0.827,0.285-1.516,0.856-2.067
		c0.57-0.551,1.25-0.827,2.038-0.827c1.22,0,2.087,0.531,2.6,1.595c0.983,1.97,2.578,2.954,4.784,2.954h4.075
		c1.457,0,2.708-0.521,3.752-1.565c1.043-1.043,1.565-2.294,1.565-3.751v-3.781c0-1.456-0.522-2.707-1.565-3.751
		c-1.044-1.043-2.295-1.565-3.752-1.565h-4.252c-0.789,0-1.468-0.285-2.038-0.856c-0.571-0.57-0.856-1.25-0.856-2.038
		c0-0.787,0.285-1.467,0.856-2.038c0.57-0.57,1.249-0.856,2.038-0.856h4.252c1.457,0,2.708-0.52,3.752-1.559
		c1.043-1.039,1.565-2.284,1.565-3.735v-3.707c0-1.489-0.522-2.755-1.565-3.794c-1.044-1.04-2.295-1.56-3.752-1.56h-4.075
		c-2.244,0-3.859,1.012-4.844,3.033c-0.513,1.089-1.379,1.634-2.599,1.634c-0.789,0-1.468-0.283-2.038-0.852
		c-0.571-0.568-0.856-1.243-0.856-2.026c0-0.43,0.098-0.861,0.295-1.292c0.905-1.919,2.274-3.446,4.105-4.582
		c1.831-1.135,3.811-1.704,5.937-1.704h4.075c3.072,0,5.69,1.093,7.857,3.275c2.165,2.183,3.248,4.808,3.248,7.876v3.716
		c0,3.107-1.143,5.762-3.426,7.964c-0.157,0.158-0.157,0.316,0,0.473c2.283,2.202,3.426,4.858,3.426,7.965V58.086z"/>
</g>
</svg>
