<?xml version="1.0" encoding="utf-8"?>
<!-- Generator: Adobe Illustrator 16.0.0, SVG Export Plug-In . SVG Version: 6.00 Build 0)  -->
<!DOCTYPE svg PUBLIC "-//W3C//DTD SVG 1.1//EN" "http://www.w3.org/Graphics/SVG/1.1/DTD/svg11.dtd">
<svg version="1.1" id="Layer_1" xmlns="http://www.w3.org/2000/svg" xmlns:xlink="http://www.w3.org/1999/xlink" x="0px" y="0px"
	 width="96px" height="96px" viewBox="0 0 96 96" enable-background="new 0 0 96 96" xml:space="preserve">
<g>
	<path d="M60.7,57.6c0,0.788-0.286,1.467-0.856,2.038c-0.571,0.571-1.251,0.856-2.038,0.856h-4.135
		c-0.236,0-0.354,0.118-0.354,0.354v5.316c0,0.788-0.286,1.467-0.856,2.037c-0.571,0.571-1.251,0.856-2.038,0.856
		c-0.788,0-1.468-0.285-2.038-0.856c-0.571-0.57-0.856-1.249-0.856-2.037v-5.316c0-0.236-0.118-0.354-0.354-0.354h-9.037
		c-0.945,0-1.714-0.374-2.305-1.123c-0.59-0.747-0.768-1.574-0.531-2.48l8.211-31.604c0.394-1.418,1.338-2.127,2.835-2.127
		c0.788,0,1.467,0.275,2.038,0.824c0.57,0.548,0.856,1.233,0.856,2.057c0,0.235-0.044,0.471-0.128,0.705l-7.184,27.651
		c-0.079,0.205,0,0.308,0.238,0.308h5.003c0.238,0,0.357-0.118,0.357-0.354v-8.152c0-0.827,0.285-1.516,0.856-2.067
		c0.57-0.551,1.25-0.827,2.038-0.827c0.787,0,1.467,0.276,2.038,0.827c0.57,0.552,0.856,1.24,0.856,2.067v8.152
		c0,0.236,0.118,0.354,0.354,0.354h4.135c0.787,0,1.467,0.286,2.038,0.856C60.414,56.133,60.7,56.812,60.7,57.6z"/>
</g>
</svg>
