<?xml version="1.0" encoding="utf-8"?>
<!-- Generator: Adobe Illustrator 16.0.0, SVG Export Plug-In . SVG Version: 6.00 Build 0)  -->
<!DOCTYPE svg PUBLIC "-//W3C//DTD SVG 1.1//EN" "http://www.w3.org/Graphics/SVG/1.1/DTD/svg11.dtd">
<svg version="1.1" id="Layer_1" xmlns="http://www.w3.org/2000/svg" xmlns:xlink="http://www.w3.org/1999/xlink" x="0px" y="0px"
	 width="96px" height="96px" viewBox="0 0 96 96" enable-background="new 0 0 96 96" xml:space="preserve">
<g>
	<path d="M60.759,58.072c0,3.071-1.093,5.7-3.278,7.886s-4.813,3.278-7.886,3.278H45.52c-2.088,0-4.027-0.551-5.819-1.654
		c-1.792-1.102-3.16-2.578-4.104-4.43c-0.198-0.434-0.296-0.887-0.296-1.359c0-0.787,0.286-1.466,0.859-2.037
		c0.572-0.571,1.253-0.857,2.044-0.857c1.185,0,2.053,0.539,2.607,1.616c0.987,1.955,2.566,2.933,4.739,2.933h4.088
		c1.462,0,2.716-0.525,3.763-1.575c1.047-1.051,1.57-2.31,1.57-3.777v-6.662c0-1.506-0.523-2.774-1.57-3.806
		S51.1,46.08,49.638,46.08H45.55c-2.173,0-3.752,0.978-4.739,2.933c-0.555,1.078-1.423,1.616-2.607,1.616
		c-0.791,0-1.472-0.285-2.044-0.856c-0.573-0.57-0.859-1.25-0.859-2.038v-21.68c0-0.787,0.275-1.466,0.827-2.037
		c0.551-0.571,1.24-0.857,2.067-0.857H56.86c0.787,0,1.467,0.286,2.038,0.857c0.57,0.571,0.856,1.25,0.856,2.037
		c0,0.789-0.286,1.468-0.856,2.038c-0.571,0.571-1.251,0.856-2.038,0.856H41.384c-0.197,0-0.295,0.118-0.295,0.354V41
		c0,0.236,0.098,0.296,0.295,0.178c1.457-0.591,2.836-0.887,4.136-0.887h4.075c3.072,0,5.7,1.093,7.886,3.278
		s3.278,4.814,3.278,7.887V58.072z"/>
</g>
</svg>
