<?xml version="1.0" encoding="utf-8"?>
<!-- Generator: Adobe Illustrator 16.0.0, SVG Export Plug-In . SVG Version: 6.00 Build 0)  -->
<!DOCTYPE svg PUBLIC "-//W3C//DTD SVG 1.1//EN" "http://www.w3.org/Graphics/SVG/1.1/DTD/svg11.dtd">
<svg version="1.1" id="Layer_1" xmlns="http://www.w3.org/2000/svg" xmlns:xlink="http://www.w3.org/1999/xlink" x="0px" y="0px"
	 width="96px" height="96px" viewBox="0 0 96 96" enable-background="new 0 0 96 96" xml:space="preserve">
<g>
	<path d="M60.759,58.072c0,3.071-1.093,5.7-3.278,7.886s-4.813,3.278-7.886,3.278h-3.189c-3.071,0-5.7-1.091-7.886-3.273
		c-2.186-2.184-3.278-4.81-3.278-7.877V34.193c0-3.068,1.093-5.693,3.278-7.876s4.814-3.275,7.886-3.275h3.189
		c2.127,0,4.085,0.559,5.878,1.675c1.791,1.116,3.16,2.614,4.105,4.493c0.196,0.431,0.295,0.862,0.295,1.292
		c0,0.784-0.287,1.459-0.859,2.027c-0.573,0.567-1.254,0.851-2.044,0.851c-1.186,0-2.055-0.524-2.607-1.574
		c-0.988-1.983-2.588-2.975-4.8-2.975h-3.2c-1.462,0-2.716,0.52-3.763,1.559s-1.57,2.303-1.57,3.792v7.174
		c0,0.196,0.1,0.256,0.297,0.176c1.58-0.826,3.258-1.24,5.036-1.24h3.199c3.081,0,5.717,1.093,7.909,3.278s3.288,4.814,3.288,7.887
		V58.072z M54.971,58.095v-6.662c0-1.506-0.527-2.774-1.58-3.806c-1.052-1.031-2.312-1.547-3.782-1.547h-3.217
		c-1.47,0-2.731,0.516-3.783,1.547c-1.053,1.031-1.579,2.3-1.579,3.806v6.662c0,1.468,0.526,2.727,1.579,3.777
		c1.052,1.05,2.313,1.575,3.783,1.575h3.217c1.47,0,2.73-0.525,3.782-1.575C54.443,60.821,54.971,59.562,54.971,58.095z"/>
</g>
</svg>
