<?xml version="1.0" encoding="utf-8"?>
<!-- Generator: Adobe Illustrator 16.0.0, SVG Export Plug-In . SVG Version: 6.00 Build 0)  -->
<!DOCTYPE svg PUBLIC "-//W3C//DTD SVG 1.1//EN" "http://www.w3.org/Graphics/SVG/1.1/DTD/svg11.dtd">
<svg version="1.1" id="Layer_1" xmlns="http://www.w3.org/2000/svg" xmlns:xlink="http://www.w3.org/1999/xlink" x="0px" y="0px"
	 width="96px" height="96px" viewBox="0 0 96 96" enable-background="new 0 0 96 96" xml:space="preserve">
<g>
	<path fill="#010101" d="M76.297,38.628c0.711-0.889,0.537-2.19-0.381-2.863C68.088,30.035,58.445,26.633,48,26.633
		c-10.445,0-20.087,3.399-27.917,9.132c-0.918,0.673-1.092,1.974-0.38,2.863c8.912,11.14,17.824,22.28,26.735,33.42
		c0.801,1.001,2.323,1.001,3.124,0C58.474,60.908,67.385,49.768,76.297,38.628z"/>
</g>
<g>
	<defs>
		<path id="SVGID_1_" d="M76.297,38.628c0.711-0.889,0.537-2.19-0.381-2.863C68.088,30.035,58.445,26.633,48,26.633
			c-10.445,0-20.087,3.399-27.917,9.132c-0.918,0.673-1.092,1.974-0.38,2.863c8.912,11.14,17.824,22.28,26.735,33.42
			c0.801,1.001,2.323,1.001,3.124,0C58.474,60.908,67.385,49.768,76.297,38.628z"/>
	</defs>
	<clipPath id="SVGID_2_">
		<use xlink:href="#SVGID_1_"  overflow="visible"/>
	</clipPath>
	<g clip-path="url(#SVGID_2_)">
		<path fill="#FFF200" d="M70.521,45.848c-6.174-4.943-13.995-7.92-22.521-7.92c-8.525,0-16.346,2.973-22.521,7.92L48,74
			L70.521,45.848z"/>
	</g>
</g>
</svg>
