<?xml version="1.0" encoding="utf-8"?>
<!-- Generator: Adobe Illustrator 16.0.0, SVG Export Plug-In . SVG Version: 6.00 Build 0)  -->
<!DOCTYPE svg PUBLIC "-//W3C//DTD SVG 1.1//EN" "http://www.w3.org/Graphics/SVG/1.1/DTD/svg11.dtd">
<svg version="1.1" id="Layer_1" xmlns="http://www.w3.org/2000/svg" xmlns:xlink="http://www.w3.org/1999/xlink" x="0px" y="0px"
	 width="96px" height="96px" viewBox="0.5 96.5 96 96" enable-background="new 0.5 96.5 96 96" xml:space="preserve">
<circle fill="#304863" cx="48.5" cy="144.5" r="45"/>
<g>
	<path fill="#7DBEFF" d="M48.5,117.5c-14.912,0-27,12.088-27,27s12.088,27,27,27c14.912,0,27-12.088,27-27S63.412,117.5,48.5,117.5z
		 M48.5,164.5c-11.028,0-20-8.972-20-20s8.972-20,20-20c11.028,0,20,8.972,20,20S59.528,164.5,48.5,164.5z"/>
	<circle fill="#7DBEFF" cx="48.5" cy="144.5" r="9"/>
	<path fill="#7DBEFF" d="M48.5,126.5c-9.941,0-18,8.059-18,18s8.059,18,18,18c9.941,0,18-8.059,18-18S58.441,126.5,48.5,126.5z
		 M48.5,155.5c-6.065,0-11-4.935-11-11s4.935-11,11-11s11,4.935,11,11S54.565,155.5,48.5,155.5z"/>
	<path fill="#7DBEFF" d="M48.5,108.5c-19.882,0-36,16.118-36,36s16.118,36,36,36c19.882,0,36-16.118,36-36S68.382,108.5,48.5,108.5z
		 M48.5,173.5c-15.991,0-29-13.01-29-29s13.009-29,29-29c15.99,0,29,13.01,29,29S64.49,173.5,48.5,173.5z"/>
</g>
</svg>
