<?xml version="1.0" encoding="utf-8"?>
<!-- Generator: Adobe Illustrator 16.0.0, SVG Export Plug-In . SVG Version: 6.00 Build 0)  -->
<!DOCTYPE svg PUBLIC "-//W3C//DTD SVG 1.1//EN" "http://www.w3.org/Graphics/SVG/1.1/DTD/svg11.dtd">
<svg version="1.1" id="Layer_1" xmlns="http://www.w3.org/2000/svg" xmlns:xlink="http://www.w3.org/1999/xlink" x="0px" y="0px"
	 width="96px" height="96px" viewBox="0 0 96 96" enable-background="new 0 0 96 96" xml:space="preserve">
<g>
	<path fill="#4FA349" d="M64,23h-6v-4c0-1.104-0.896-2-2-2h-8h-8c-1.104,0-2,0.896-2,2v4h-6c-2.209,0-4,1.791-4,4v46
		c0,2.209,1.791,4,4,4h32c2.209,0,4-1.791,4-4V27C68,24.791,66.209,23,64,23z"/>
</g>
<path fill="#FFF200" d="M9.067,38.838C8.376,41.781,8,44.846,8,48c0,22.091,17.909,40,40,40c22.092,0,40-17.909,40-40
	c0-1.43-0.078-2.841-0.225-4.232C56.254,52.398,35.262,35.021,9.067,38.838z"/>
<path fill="#E8D11B" d="M32,77h32c2.209,0,4-1.791,4-4V46.185c-14.507-0.345-27.08-4.95-40-6.968V73C28,75.209,29.791,77,32,77z"/>
</svg>
