<?xml version="1.0" encoding="utf-8"?>
<!-- Generator: Adobe Illustrator 16.0.0, SVG Export Plug-In . SVG Version: 6.00 Build 0)  -->
<!DOCTYPE svg PUBLIC "-//W3C//DTD SVG 1.1//EN" "http://www.w3.org/Graphics/SVG/1.1/DTD/svg11.dtd">
<svg version="1.1" id="Layer_1" xmlns="http://www.w3.org/2000/svg" xmlns:xlink="http://www.w3.org/1999/xlink" x="0px" y="0px"
	 width="96px" height="96px" viewBox="0.5 96.5 96 96" enable-background="new 0.5 96.5 96 96" xml:space="preserve">
<path fill="#FFFFFF" d="M59.25,174.438c-4.125-5.25-5.75-4.562-8.375-8.688c-2.639-4.146-5.875-5.625-5.875-5.625
	s-5.062,3.25-8.25,1.188s-7-4.188-6.375-8.125c-3.938,1.688-11.684-0.073-12.812-6.562c-0.75-4.312-4.156-4.812,1.188-13.938
	c4.062-6.938,6.321-6.321,11.938-9.75c4.812-2.938,8.27-2.672,12.438-3.625c5.375-1.229,8.709,0.104,13.438,0
	c5.436-0.12,10.25,2.188,12.875,5.625c2.359,3.09,4.831,3.188,6.562,5.562c2.188,3,2.965,5.479,3.562,8.312
	c0.74,3.506,0.688,6.641,0.312,10.875c-0.438,4.938-4,7.938-7.062,8.062c0.938,2.125,0.375,4.25-2.312,5.938
	c-3.113,1.955-2.125,3.438-9.5,3.75c2.312,2.125,3.062,3.562,3.062,3.562L59.25,174.438z"/>
</svg>
